<svg width="256" height="256" viewBox="0 0 256 256" fill="none" xmlns="http://www.w3.org/2000/svg">
<rect width="256" height="256" rx="30" fill="#1B1F1E"/>
<path fill-rule="evenodd" clip-rule="evenodd" d="M126.879 242.062C177.09 242.062 220.663 202.613 220.663 153.95C226.189 113.431 156.71 43.3365 130.197 36.6928C127.178 35.9364 123.917 35.7361 120.879 36.4103C95.5099 42.0397 31.5719 114.466 35.1438 149.705C35.4344 152.572 35.9263 155.417 36.0705 158.295C38.4075 204.94 78.1698 242.062 126.879 242.062ZM127.94 222.747C169.768 222.747 203.676 189.885 203.676 149.348C203.676 108.811 169.768 75.9492 127.94 75.9492C86.1128 75.9492 52.2048 108.811 52.2048 149.348C52.2048 189.885 86.1128 222.747 127.94 222.747Z" fill="#9FB603"/>
<path d="M111 160.5L129.5 118L143 160.5L126.5 155.5L111 160.5Z" fill="#9FB603" stroke="#9FB603"/>
<mask id="path-4-outside-1_27_142" maskUnits="userSpaceOnUse" x="119" y="49" width="17" height="21" fill="black">
<rect fill="white" x="119" y="49" width="17" height="21"/>
<path d="M134.619 50.8182V69H132.489L122.581 54.7244H122.403V69H120.202V50.8182H122.332L132.276 65.1293H132.453V50.8182H134.619Z"/>
</mask>
<path d="M134.619 50.8182V69H132.489L122.581 54.7244H122.403V69H120.202V50.8182H122.332L132.276 65.1293H132.453V50.8182H134.619Z" fill="black"/>
<path d="M134.619 50.8182H135.619V49.8182H134.619V50.8182ZM134.619 69V70H135.619V69H134.619ZM132.489 69L131.667 69.5702L131.965 70H132.489V69ZM122.581 54.7244L123.402 54.1543L123.104 53.7244H122.581V54.7244ZM122.403 54.7244V53.7244H121.403V54.7244H122.403ZM122.403 69V70H123.403V69H122.403ZM120.202 69H119.202V70H120.202V69ZM120.202 50.8182V49.8182H119.202V50.8182H120.202ZM122.332 50.8182L123.154 50.2476L122.855 49.8182H122.332V50.8182ZM132.276 65.1293L131.454 65.6998L131.753 66.1293H132.276V65.1293ZM132.453 65.1293V66.1293H133.453V65.1293H132.453ZM132.453 50.8182V49.8182H131.453V50.8182H132.453ZM133.619 50.8182V69H135.619V50.8182H133.619ZM134.619 68H132.489V70H134.619V68ZM133.31 68.4298L123.402 54.1543L121.759 55.2946L131.667 69.5702L133.31 68.4298ZM122.581 53.7244H122.403V55.7244H122.581V53.7244ZM121.403 54.7244V69H123.403V54.7244H121.403ZM122.403 68H120.202V70H122.403V68ZM121.202 69V50.8182H119.202V69H121.202ZM120.202 51.8182H122.332V49.8182H120.202V51.8182ZM121.511 51.3888L131.454 65.6998L133.097 64.5587L123.154 50.2476L121.511 51.3888ZM132.276 66.1293H132.453V64.1293H132.276V66.1293ZM133.453 65.1293V50.8182H131.453V65.1293H133.453ZM132.453 51.8182H134.619V49.8182H132.453V51.8182Z" fill="black" mask="url(#path-4-outside-1_27_142)"/>
</svg>
